<svg xmlns="http://www.w3.org/2000/svg" width="1600" height="900" viewBox="0 0 1600 900" role="img" aria-labelledby="title desc">
<title id="title">ORCH: 组织原则赋能具身AI的集体智能</title><desc id="desc">SPECTRA根据文章主题生成的编辑示意图</desc>
<style>.bg{fill:#0c1118}.grid{stroke:#26303c;stroke-width:1}.shape{fill:none;stroke:#c5a3e6;stroke-width:5}.line{fill:none;stroke:#c5a3e6;stroke-width:5;stroke-linecap:round;stroke-linejoin:round}.strong{stroke-width:9}.node{fill:#0c1118;stroke:#c5a3e6;stroke-width:7}.nodes{fill:#c5a3e6}</style>
<rect width="1600" height="900" class="bg"/><path d="M0 150h1600M0 300h1600M0 450h1600M0 600h1600M0 750h1600M200 0v900M400 0v900M600 0v900M800 0v900M1000 0v900M1200 0v900M1400 0v900" class="grid"/>
<circle cx="1160" cy="390" r="175" class="shape"/><circle cx="1160" cy="215" r="38" class="node"/><circle cx="1315" cy="470" r="38" class="node"/><circle cx="1005" cy="470" r="38" class="node"/><path d="M1198 225c85 25 135 82 125 178M1288 504c-63 67-141 78-220 22M1028 426c-9-85 31-151 100-190" class="line"/>
</svg>